<?xml version="1.0" standalone="no"?>
<!DOCTYPE svg PUBLIC "-//W3C//DTD SVG 20010904//EN"
 "http://www.w3.org/TR/2001/REC-SVG-20010904/DTD/svg10.dtd">
<svg version="1.0" xmlns="http://www.w3.org/2000/svg"
 width="1200.000000pt" height="1200.000000pt" viewBox="0 0 1200.000000 1200.000000"
 preserveAspectRatio="xMidYMid meet">

<g transform="translate(0.000000,1200.000000) scale(0.100000,-0.100000)"
fill="#000000" stroke="none">
<path d="M5755 10250 c-561 -32 -1156 -190 -1648 -436 -704 -353 -1302 -896
-1718 -1559 -349 -555 -551 -1142 -631 -1830 -19 -158 -15 -659 6 -852 92
-850 395 -1583 934 -2260 116 -146 468 -496 622 -619 268 -215 515 -372 815
-519 1044 -512 2251 -571 3345 -163 177 66 245 95 425 185 1107 555 1931 1584
2225 2778 125 509 154 973 94 1510 -131 1174 -761 2255 -1725 2957 -611 445
-1304 711 -2069 792 -174 19 -496 26 -675 16z m455 -340 c323 -19 595 -65 890
-151 1327 -390 2356 -1461 2694 -2805 114 -453 149 -969 96 -1414 -142 -1181
-814 -2233 -1834 -2871 -133 -82 -409 -224 -566 -289 -696 -291 -1488 -369
-2245 -224 -555 107 -1114 353 -1569 692 -621 463 -1094 1092 -1352 1799 -220
602 -294 1273 -208 1888 169 1211 891 2271 1962 2878 509 288 1102 463 1687
496 204 12 251 12 445 1z"/>
<path d="M5830 7943 c-227 -21 -373 -52 -530 -110 -448 -167 -785 -475 -990
-906 -148 -312 -209 -622 -197 -1011 8 -285 50 -508 137 -730 175 -446 467
-767 882 -966 277 -132 514 -183 863 -183 226 0 348 14 528 59 867 216 1401
994 1364 1984 -14 346 -76 600 -218 885 -234 471 -638 792 -1167 926 -180 46
-490 70 -672 52z m331 -453 c328 -32 571 -141 780 -350 247 -246 379 -568 409
-1003 37 -531 -107 -997 -399 -1287 -186 -186 -414 -300 -681 -343 -388 -63
-765 7 -1048 194 -83 54 -229 194 -292 277 -52 70 -133 219 -170 312 -77 193
-120 444 -120 700 0 475 133 856 394 1128 166 173 341 272 606 343 59 16 244
36 341 38 42 0 123 -4 180 -9z"/>
</g>
</svg>
